# xmcd CD database file
#
# Track frame offsets:
#	150
#	22182
#	33180
#	54237
#	71710
#	83967
#	107737
#	124067
#	146352
#	167665
#	192815
#	216887
#
# Disc length: 3229 seconds
#
# Revision: 0
# Processed by: cddbd v1.5.2PL0 Copyright (c) Steve Scherf et al.
# Submitted via: CDex 1.51
#
DISCID=a40c9b0c
DTITLE=Ahn Trio - Lullaby For My Favourite Insomniac
DYEAR=1900
DGENRE=Jazz
TTITLE0=Dies Irie
TTITLE1=Magic Hour
TTITLE2=My Funny Valentine
TTITLE3=Lullaby for my Favorite Insomniac
TTITLE4=Big My Secret
TTITLE5=All I Want
TTITLE6=Heart Asks Pleasure First
TTITLE7=Dream
TTITLE8=Oblivion
TTITLE9=Song on the Land
TTITLE10=This Is Not America
TTITLE11=Solitary Singer
EXTD=
EXTT0=
EXTT1=
EXTT2=
EXTT3=
EXTT4=
EXTT5=
EXTT6=
EXTT7=
EXTT8=
EXTT9=
EXTT10=
EXTT11=
PLAYORDER=
